<svg xmlns="http://www.w3.org/2000/svg" viewBox="0 0 5019.184 210.717"><path d="M5006.95 29.507v159.996c-1666.667.003-3333.333.003-5000-.001V20.507c3.406-.645 6.795-1.41 10.223-1.904 4.478-.645 8.987-1.075 14.622-1.73.783.154 2.965 1.052 5.075.903 4.533-.319 9.072-1.888 13.525-1.611 4.346.27 8.351.544 12.824-.192 4.908-.808 10.264.377 15.507-.107 2.481-.229 5.129 1.351 7.844 2.154l.489-2.857c3.195 0 6.161-.655 8.681.129 6.231 1.939 12.318 2.334 18.621.638 1.6-.431 3.402-.401 5.069-.209 1.493.172 3.102 1.528 4.357 1.201 5.839-1.52 11.873 2.008 17.658-.818.44-.215 1.703 1.257 2.85 2.153 1.812-2.003 4.43-1.223 7.572-1.204 6.944.044 13.959 1.646 20.925.105.681-.151 1.521.565 2.316.758 2.982.726 6.988 2.963 8.775 1.803 5.169-3.353 10.082-.17 15.038-.729 4.542-.513 9.279.71 14.167 1.191 1.292.073 2.779.283 4.25.203 1.41-.077 2.832-.775 4.198-.65l28.256 2.832c2.322.229 4.661.306 6.995.402l10.569.376c1.538.067 3.071.363 4.606.371l24.556.018-.369-1.454c2.416.399 4.848.228 6.65 1.212 4.53 2.474 9.4-4.467 13.623.737.021.026.275-.202.418-.198 7.259.169 14.543-2.404 21.828.504 1.388.554 3.488-.62 5.242-1.067.542-.138 1.056-.789 1.53-.735l17.853 2.163c2.263.255 4.649.681 6.815.235 3.502-.722 6.83-2.816 10.304-3.004 3.504-.19 7.08 1.328 10.654 1.915 1.993.328 4.812 1.189 5.931.241 3.482-2.948 6.166-.444 9.188.338.956.247 2.16.286 3.048-.076 6.068-2.473 12.472-2.423 18.439-.807 4.656 1.262 9.017-.082 13.496.401 1.264.136 2.731-1.606 4.104-2.486l-.119 1.365 18.564 1.523c-.007.02.282-.795.588-1.655l4.077 4.263c.67-1.258.921-2.08 1.45-2.637.737-.778 1.683-1.358 2.776-2.207l2.129 3.818c5.971-3.859 5.971-3.859 7.363-1.468h22.478l.118.415-4.492 1.197.315 1.327 4.657-.957c2.03-.39 4.312-1.529 6.053-.978 5.768 1.826 12.141-.825 17.621 2.611.486.304 1.606.368 1.925.045 2.849-2.89 6.203-.086 9.383-.869 3.333-.821 7.141.43 10.748.539 3.924.118 7.915-.485 11.77.029 5.901.787 11.693 2.368 17.578 3.333.93.152 2.101-1.164 3.22-1.837l3.889 3.031 1.142-2.928c1.24.824 3.144 2.458 3.419 2.218 4.762-4.139 9.345 2.186 14.172.075 2.075-.907 4.882-.54 7.278-.203 2.739.386 5.469 1.181 8.064 2.164 3.506 1.327 6.811-.803 10.649.318 6.526 1.907 13.607 1.938 20.462 2.689 3.259.357 8.515-.556 9.412 1.043 2.169 3.868 4.713 1.043 6.863 1.636 2.484.685 5.302 1.067 7.793.602 3.497-.654 6.875-2.633 9.7 1.249.023.032.336-.069.431-.179 4.003-4.642 5.577-1.358 6.772 2.402 3.93-1.073 7.474-2.572 11.119-2.885 3.603-.31 7.309.578 11.409.983l.2 1.16c4.198.531 7.645 1.319 11.083 1.284 2.502-.026 5.305-2.153 7.407-1.505 2.483.766 4.286.409 6.626.046 2.87-.445 6.226 1.424 8.893.648 7.385-2.149 14.724 1.349 22.043-.547 2.849-.738 6.024-1.049 8.912-.62 5.147.764 10.218 4.429 15.229-.321.095-.09.396-.136.448-.075 2.829 3.404 5.754 4.545 8.94.431 3.675 3.359 6.918.621 10.327-.627.713-.261 1.724.293 2.89.53l-2.336 3.395c5.23 1 5.71.63 5.837-4.625l5.523 2.811-1.142-.946 4.105-3.577.708 1.628c2.111.575 4.642 2.188 6.255 1.534 5.084-2.059 9.824-4.969 15.125-7.775v4.723l4.657-4.525c1.111 1.398 2.235 4.168 3.718 4.376 2.46.344 5.147-.975 7.749-1.544.269-.059.696.402.907.306 1.385-.629 3.135-1.014 4.013-2.092 2.759-3.39 4.335-2.296 5.168.115l21.449 1.963c-.311.245-.014.085.183-.156 1.268-1.551 10.957-1.156 11.486.386l-3.309 1.405.256 1.774c6.18-5.82 12.83-3.341 19.283-2.09l.904-3.033c4.191 6.057 7.99 5.951 12.092-.088v2.961c4.251-.142 8.782-1.58 11.999-.122 5.986 2.714 7.19 3.222 10.702-1.639 1.622 2.757 7.171 3.043 10.307.563 4.191 5.426 8.046-1.254 12.142-.372l-2.925 3.106c2.156.185 3.782-.987 5.342-.905 1.574.082 3.02 1.588 4.634 2.149 2.911 1.012 4.933-2.587 8.389-1.438 2.086.693 6.313-2.596 7.358-1.648 4.997 4.533 11.073-4.438 15.537 1.674.178.244 1.495-.442 2.3-.534 1.313-.151 2.64-.215 3.962-.235l6.996-.01c1.759-.089 3.648 1.494 5.283 1.265 7.48-1.048 14.848.712 22.225.412 3.545-.144 6.632 1.147 9.89 1.298 3.815.177 7.678-1.058 11.545-1.443 1.418-.141 2.974.191 4.345.663 3.494 1.203 6.333 3.601 10.73 2.838 5.733-.994 11.668-3.169 17.635.375 1.633.97 5.388-1.377 6.8-.339 5.741 4.222 11.856.362 17.676 1.467 1.388.264 3.218-1.797 4.396-2.515 2.869.81 5.83 2.209 8.864 2.391 7.516.452 15.173-.371 22.559.743 4.234.639 9.215-2.385 12.947 1.991.168.197 2.155-1.249 3.349-1.816 1.695-.805 4.879-2.28 4.956-2.137 2.168 4.021 4.958.547 7.016.304 3.609-.427 7.021-2.353 10.596-3.37.754-.214 1.851.781 2.79 1.219.564.568 1.828.898 2.423.411 2.29-1.874 4.053-2.739 5.807.705.227.445 2.693 2.242 4.824.254 1.172-1.093 3.808-.616 6.101-.884l-.971 3.382c1.098-.876 1.751-1.334 2.325-1.876.472-.446.85-.992 1.269-1.494l-.018 1.557c2.035.584 4.174 1.888 6.084 1.61 4.796-.698 9.307-1.181 13.14 2.587.184.181.647.159.962.114l17.404-2.534 1.341 3.588 4.992-3.257-.148 2.932c1.718.282 3.272.892 4.686.658 1.15-.191 2.351-2.185 3.14-1.967 1.279.353 2.239 1.862 3.298 2.85 2.965-1.494 5.513-7.577 8.341.167l4.094-4.838 1.124 2.905 20.662 1.495 6.639-1.833.325 1.255-3.715 2.365 14.275-2.064c1.887-.233 3.829.002 5.726-.182.268-.026.423-1.223.63-1.878.44.644 1.07 1.236 1.265 1.948.193.704-.055 1.528-.124 2.509l9.751-4.35-.494 3.234c.827-.322 1.629-.806 2.485-.932 1.767-.26 4.883-.933 5.135-.38 1.991 4.354 5.858.003 8.143 2.049 1.708-2.113 3.589-2.513 6.489-2.35 2.059.116 4.292-2.859 6.437-4.447 1.471 2.704 6.019 2.624 9.711.431 1.448.373 2.69.048 3.951-.17 1.731-.299 3.476-.517 5.41-.798l.922 4.273h6.102l.08-.853-3.005-.679.334-1.697 11.549 2.178c-.042.103.48-1.174 1.117-2.731 5.252 3.222 10.668 4.114 16.358 1.674l-2.239 2.808c8.4-3.93 9.399-3.939 17.372-.595 2.06-1.838 3.863-5.843 6.829-.818.148.251 1.612.007 2.248-.37 1.301-.771 2.455-1.79 3.669-2.706l.699 1.142-3.145 1.933c.964.695 1.671.743 2.284.525 2.828-1.003 5.166-2.627 8.749-.787 2.063 1.059 6.668 2.685 7.782-1.791 2.533.213 4.652.48 6.777.551l16.232.453c1.773.092 3.513.83 5.084 1.226l1.749-2.919 5.28 3.487c4.731-5.212 11.083-1.302 16.854-1.479 1.706-.052 3.237 1.355 5.446-.182 1.743-1.213 4.382-1.138 6.623-1.635l.242.662-2.811 1.936c2.024.654 3.482.169 4.975-.156 2.438-.531 5.726-2.191 7.198-1.203 4.969 3.335 9.245.757 13.893-.203 1.65 3.453 3.835 3.557 6.88 1.145 1.241-.982 3.308-1.496 4.898-1.318 2.092.234 4.085 1.361 6.12 2.104l.385-.993.988 1.996c4.2-2.141 7.854-4.611 11.886-5.855 2.922-.902 3.125-.179 3.395-2.92.06-.615.316-1.211.481-1.816l1.607.264-1.358 7.466 13.739-6.757.817 1.423-5.532 3.761c5.833-3.395 13.325 1.853 18.922-3.874l4.82 6.114 10.229-6.421c.211.406 1.363 1.635 1.339 2.841-.027 1.362-1.111 2.702-2.036 4.702 2.584-.869 4.872-2.488 6.077-1.897 5.122 2.512 6.323.002 7.459-4.602l2.241 6.686 8.512-1.192-.881-.628 5.714-5.151 1.674 1.875-4.516 4.133.633 1.265 10.214-5.886.505 4.888c1.587-.424 3.357-1.543 4.541-1.099 4.605 1.727 5.455-.536 5.399-4.452.358 1.469.144 2.975.643 4.187.426 1.037 1.548 2.176 2.586 2.463.988.273 2.315-.377 3.404-.832l9.013-3.914c.232-.096.795.591 1.195.925l3.619 3.043 3-3.734c4.175 1.231 8.59 2.804 13.132 3.791 3.897.847 8.193.336 11.852 1.68 4.051 1.488 6.672 1.92 8.713-2.627.33-.735 3.21-.325 5.956-.518l-4.605 3.222 1.024 1.805 9.042-4.114c3.537 3.637 12.567 3.378 16.174-.995l.492 4.025 1.505-1.704c2.021 1.016 3.964 2.752 4.943 2.317 1.683-.746 2.764-2.847 4.439-4.771l2.384 7.373 5.434-3.658 2.732 3.499 4.38-7.313 1.634.711-2.163 6.103c1.852-.113 3.056-1.245 4.466-1.985 1.431-.751 3.261-1.849 4.571-1.499 3.019.805 5.828 2.396 8.522 3.581l2.892-8.207 2.396 7.433h10.657v-5.197l1.362-.264 2.76 6.595c.695-.89.363-1.993.762-2.436.895-.993 2.153-1.658 3.264-2.457 1.767 5.059 5.258 1.219 7.527 1.487l1.597 4.501 5.735-2.73-1.512-2.387 1.631-.95 3.263 6.426c1.618-.752 3.186-1.617 4.852-2.2.921-.322 2.867-.339 2.893-.207.586 2.993 2.075 2.118 4.24 1.638 3.168-.702 6.631-.986 9.814-.479 4.208.671 7.754.208 10.869-2.771.166-.158.615-.02.94-.02l1.047 3.201c4.669-3.102 8.991-4.227 12.27-.814l6.764-2.347 9.861-3.585-3.164 5.318 6.579 1.94.788-3.669c.245-1.048.528-2.087.772-3.043l3.92 2.274-.879 3.35c.964-.452 2.104-.711 2.853-1.397 1.484-1.36 2.751-2.957 4.224-4.583 1.651 4.343 3.485 4.715 6.934 1.816l-2.137-.977-.015-1.5c7.025 3.57 13.028 2.39 18.855-3.281l1.107 4.991 6.131-3.637 1.302 3.17 37.057-3.957 1.039 1.725h6.169c.959-2.201 1.5-2.512 4.622-1.448 3.502 1.193 6.846 2.355 9.999-.98.398-.421 2.347.517 3.514.984.426.17.829 1.218.97 1.163 3.236-1.258 6.435-2.614 9.747-3.995l2.475 3.968 4.698-6.205c2.343.036 4.2-1.021 6.188-1.412 1.943-.382 4.019-.083 6.037-.083l-.097 1.286 1.883-2.852 3.028 2.454 13.986-1.971-.425 1.94c2.279 0 4.264.062 6.244-.012 5.814-.215 12.064 1.444 16.652-4.392.869 5.829 1.433 5.998 6.961 2.643 2.308 3.107 4.856 2.928 7.896.93 1.263-.83 3.05-1.079 4.624-1.173 2.96-.178 5.938-.051 9.527-.051l-1.014 3.724c4.831-.403 4.831-.403 4.142-3.624 5.996.055 11.922 7.738 17.843-.751l.98 4.701c7.196-4.102 14.87-3.763 22.541-3.401l.539 4.341c2.553-5.147 15.84-6.726 23.274-4.054 1.101-.793 2.275-1.111 3.416-1.018 3.245.267 6.8 2.753 8.739-.547 3.33.208 6.609 1.382 8.795.316 3.096-1.509 5.486-1.009 8.362-.211 1.889.524 3.982.291 5.978.465 2.158.188 4.334.787 6.457.623 5.107-.396 10.188-1.133 15.28-1.732 1.98-.599 4.314.91 6.382.606 3.63-.533 6.929-1.466 10.788-.351 3.097.895 6.676.191 10.037.078 2.141-.072 4.276-.361 5.854-.503l6.678 3.131c1.671-2.537 2.25-6.447 6.415-2.274 1.452 1.455 4.792 1.175 7.29 1.309.499.027 1.091-1.664 1.806-2.836l.967 1.824c3.424-.154 5.86-.379 8.284-.288.589.022 1.25 1.664 1.69 1.579 4.98-.958 9.924-2.108 15.376-3.317l.426 3.43c1.536-.583 3.14-1.705 4.683-1.627 1.447.073 2.83 1.415 4.24 2.198l.534-.875-1.646-1.184 3.96-1.974 6.248 3.979-1-3.036.898-.481 2.34 3.402c.36-.578.897-1.685 1.67-2.59.461-.54 1.787-1.182 1.888-1.064 2.512 2.943 6.136.406 9.107 1.929 1.791.918 4.534-.021 7.302-.146-.074-.118.405.645.885 1.408l.2-1.508 5.28-.582 8.658-.611c1.268-.132 2.72 1.48 4.093 1.415 2.618-.125 5.19-1.206 8.844-2.17l-3.082 4.471 16.335-3.998 12.171 1.664 1.539-1.65c2.584.538 4.821 1.715 5.693 1.064 4.254-3.176 8.411.779 12.555-.204.335-.08 1.035 1.379 1.166 1.563l4.963-2.731 1.191 3.521c3.677-.404 4.875-5.159 9.404-3.413 1.054.406 2.596-.506 3.925-.747 1.81-.329 3.705-1.058 5.432-.784 2.756.438 5.38 1.672 8.126 2.261.361.077 1.111-1.661.957-1.418h24.349v-3.182l.817-.147.742 1.678 7.659-.57 2.126-2.764 1.169 1.171 2.44 2.255 8.576-3.93-.709 3.052c2.168.102 4.103.132 6.026.297 2.484.214 5.491 1.566 5.419-1.999l10.68-.674c.597.851 1.366 2.622 1.864 2.549 3.834-.565 7.615-1.487 11.674-2.354l2.533 3.74-.335-4.073c9.353 3.405 18.826-1.24 28.142.811 10.438 2.299 20.728-.1 31.132-.72l.397 2.636 15.373-4.604c.703-.202 1.549.134 2.33.161 5.898.203 12.241 1.822 17.567.17 5.066-1.571 9.364-1.659 14.251-.721 2.262.434 4.748-.3 8.485-.621l-4.045-3.276c1.89-.639 3.957-.73 4.674.21 2.419 3.168 5.562 2.875 8.863 2.773l21.883-.408c1.931.012 3.856 1.022 5.538 1.504l5.906-3.393-.442 4.385c1.459-.842 2.567-2.047 3.591-1.979 5.97.396 11.919 1.109 17.881 1.658.593.055 1.261-.179 1.826-.43 6.871-3.053 13.051.291 18.505 1.082 2.602-.881 4.583-1.715 6.646-2.197 1.581-.369 3.265-.391 4.904-.395 3.469-.009 6.7 1.366 10.483-.558 2.172-1.104 5.93.911 9.124 1.552l.349 3.805 3.901-4.992 11.374-.592-.934 3.954c1.378 0 2.809.422 3.265-.067 3.741-4.01 7.581-3.581 12.148-1.355 1.232.6 3.709-1.356 6.264-2.406.046.068.538 1.62 1.512 2.033 1.287.545 3.022.483 4.432.139 1.07-.261 2.204-2.188 2.845-1.975 6.818 2.263 13.515-1.581 20.455.465.121.324.536 2.184.848 2.166 4.155-.23 8.3-.684 12.432-1.2.499-.062 1.296-.803 1.305-1.243.087-4.174 2.694-1.854 4.508-1.934s3.698-.408 5.379-1.068c1.04-.408 1.758-1.638 3.142-3.02l-.975 5.71c1.798-.18 3.616-.251 5.388-.574 1.516-.277 2.98-.845 5.364-1.55l-2.667 5.994c2.397-1.479 3.846-1.891 4.474-2.843 2.936-4.453 7.559-1.68 9.546-.611 7.619 4.097 7.363 4.573 13.521-1.392l-1.321 4.557c6.265 1.545 5.134-4.278 6.847-7.161l1.439.179.95 8.359c3.039-4.167 9.543-7.207 11.6-5.678.857.638.637 2.724 1.136 5.363l7.35-4.751 2.418 5.307c2.276-7.341 9.299-2.321 12.134-7.08l1.459 6.682.796-.09v-2.803h12.011l2.444 4.037c1.944-2.521 3.468-4.969 6.286-1.423.689.866 4.136 1.014 4.707.266 4.433-5.81 8.147-2.731 11.555.396 1.888-4.691 5.449-1.307 7.748-1.612l4.171-5.561.405 6.003c4.141.386 8.565-.328 11.632 1.386 3.437 1.921 5.896-1.79 8.049-.354 4.515 3.011 7.32 1.462 10.377-2.082 1.69-1.958 3.634-.961 4.189 1.804l-3.173-.161c3.198 1.52 6.704.613 9.828 3.008 2.717 2.084 6.813-2.718 9.85.96 4.767-3.97 8.679-.834 12.696 1.967l-.227-2.907h6.295l-.235 3.912 8.766-3.478c1.821 1.688 2.786 2.963 4.068 3.635.812.425 2.094-.048 3.638-.149l-2.559-3.03 16.328 1.056.594 4.026 5.612-2.823c4.448 2.997 15.653 2.526 16.995-.816 3.509 4.364 6.221 5.025 10.801 2.66.566-.292 1.294-.805 1.768-.654 3.617 1.15 7.189 2.439 11.053 3.781.931-3.331 3.158-5.111 6.249-3.315 6.3 3.661 9.894 3.725 14.469-.617 1.231 2.792 2.402 5.85 6.08 2.405.201-.189.903.188 1.379.257l9.846 1.367c.384.046.807-.587 1.256-.673 2.248-.427 4.499-.963 6.771-1.093 1.754-.1 3.534.412 5.311.53 2.756.183 5.756-.377 8.224.535 3.851 1.423 5.554.059 6.831-3.814l3.296 4.131 10.222-2.696c2.155 1.175 3.442 2.34 4.868 2.548 2.342.342 4.885-.392 7.145.151 3.583.86 6.493-.416 9.608-1.652 1.111-.441 3.386-.503 3.722.076 2.171 3.753 5.095 1.754 7.791 1.327.589-.093 1.549-1.009 1.59-.957 3.574 4.543 8.258-.661 12.231 1.417 1.714.897 4.072.563 6.137.789 3.734-.722 7.942-2.023 11.743-1.27 3.317.658 5.925 1.548 8.377-1.934l3.28 4.885c1.703-5.584 2.365-5.626 6.956-1.725l4.529-2.57c2.448 3.214 2.232 2.353 6.374 1.313 4.53-1.137 10.3-2.04 14.077-.146 3.797 1.903 7.322 1.697 10.107.842 5.369-1.648 10.877-.79 15.674-.232 8.386.976 16.547.16 24.805.255 3.741.043 7.47 1.188 12.038 1.977l-4.243-2.263c8.695 0 15.94 1.201 22.514-.384 5.151-1.242 8.897-1.451 12.473 2.088l4.606-7.655 1.845 5.501 10.716-2.523-.37-1.007 5.42.601-.788-3.849c2.053-.146 4.979-1.079 5.588-.269 2.351 3.127 4.254 1.681 6.618.386 1.633-.895 3.523-1.323 5.74-2.118l-.267 3.418 1.238.518c.672-1.484 1.026-3.86 2.092-4.24 1.58-.563 3.664.289 6.789.706 1.469-1.171 4.087-2.121 7.159.667.804.729 2.906.027 4.412-.017l-.808-3.239 7.795 2.37c4.125-3.919 9.401 1.966 13.767-2.002l-.504 3.328c7.536-4.113 15.023-3.596 22.512-1.868l.286 1.747 3.856-4.097 1.036 5.007c4.446-3.695 4.432-3.664 9.414-1.409.628.284 1.573-.164 2.235.087 4.433 1.683 8.471-1.425 13.152-.796 4.309.578 10.104 4.221 14.056-1.678.121-.182 1.336.081 1.337.148.044 2.572 1.038 1.343 2.431.921 2.587-.783 5.616-1.878 7.989-1.198 4.077 1.168 3.925 1.699 6.681-.783l2.419 2.715 2.576-4.265.814 3.377c4.314-.426 8.257-1.381 12.082-1.032 3.717.339 7.312 2.014 10.961 3.102l.382-1.355-2.747-1.525c1.115-.971 1.793-1.026 2.29-.752 4.379 2.422 8.582 3.206 13.317.388 1.18-.702 3.816 1.047 5.786 1.661.292.091.597.136.896.202l1.239-1.861c4.447.444 8.139 1.74 11.272.915 5.093-1.343 9.755-2.406 14.804-.007 1.029.489 2.875-.661 4.312-1.152.542-.185 1.029-.977 1.474-.925 3.67.428 7.315.919 11.043.581.627-.057 1.534 1.798 2.032 1.671 4.775-1.219 9.489-2.674 14.553-4.158l-5.153 4.636 16.401-3.541 1.056 5.049c1.803-1.901 2.698-3.189 3.908-4.012.995-.677 2.365-.802 3.568-1.172l-.358 3.157c2.084-.901 4.01-2.344 6.006-2.446 2.647-.135 5.469 1.499 7.999 1.076 4.135-.691 8.094-2.428 12.17-3.738l.188 1.749 15.24-1.174 5.855-6.489-.633 5.225 3.78-5.17 8.741 5.307c.364-2.078-.488-4.293 3.935-2.357 5.34 2.337 11.96 2.968 17.853 2.433 4.576-.416 8.723-.232 13.068.775 1.517.352 3.332.246 4.813-.246 3.373-1.12 6.637-5.267 9.926.11.026.043.446-.154.682-.239 1.307-.471 2.613-1.341 3.92-1.342 4.487-.003 8.973.349 13.461.391.375.003.761-1.305 1.251-2.203l2.009 3.903 9.822-3.689c.83-.292 2.462-.521 2.603-.231 2.885 5.91 4.529.302 6.605-1.021l.116 1.463h9.158l-1.015 1.874c2.174 0 5.375.961 6.563-.178 3.756-3.601 6.032-.767 8.732 1.041 3.333-4.032 7.932-3.905 9.338-.73l10.421-.567-2.331 2.723 6.146-.376.803-3.649.891.102v4.253l5.796-3.063c1.936.795 3.557 2.134 4.66 1.793 4.2-1.297 4.355-1.42 6.752 2.564 8.789-3.028 8.789-3.028 15.762.876.391-.266.774-.594 1.212-.812l5.729-2.79.736 1.658-3.248.982.27.955 13.808-3.252c.232.183 1.085 1.405 2.09 1.547 4.601.649 9.248 1.355 13.874 1.327 3.136-.02 6.264-1.224 10.388-2.112 5.804 4.067 13.355.676 22.073-.209l-2.897 2.497c1.202.298 1.997-.249 2.875-.483 1.784-.475 4.077-1.666 5.344-1.003 5.346 2.8 11.694 2.554 16.572-1.325l1.753 2.83 5.441-3.249-1.671 3.596 10.968-2.464.288 1.305 1.482-1.74h8.416l-2.39 4.028 5.932-3.753.905 4.07c2.007-3.079 4.561-3.967 7.534-3.062.572.174 1.071 1.682 1.331 1.608 1.387-.391 2.688-1.089 4.618-1.947.945 1.758 2.608 4.312 5.244.414.173-.256.966-.193 1.449-.123 2.983.427 5.95 1.18 8.943 1.299 6.981.276 14.01.72 20.951.189 4.701-.359 9.116.747 13.671.865.884.023 1.793-.919 2.691-1.416 1.344 1.067 2.947 1.145 4.539 1.053 7.904-.458 15.831-1.543 23.699-1.212 4.173.175 8.188 1.515 12.226-.586.671-.349 1.966-.643 2.313-.298 3.111 3.089 7.105 1.292 10.465 1.497 5.947.362 12.012-1.564 17.996-1.395 6.361.179 12.68.715 19.044-.015 6.581-.755 13.599 3.929 19.821-1.585.184-.163.6-.119.899-.088l10.687 1.132-.824 2.615c2.889-.864 5.435-2.328 7.913-2.22 5.145.223 10.239 1.428 15.383 1.938 3.16.313 6.385.264 9.56.052 2.997-.199 5.971-1.211 8.945-1.171 4.585.062 9.157.968 13.744 1.058 6.273.123 12.553-.193 18.831-.286.433-.006 1.087.142 1.271.443 2.598 4.235 6.2 2.404 10.087 1.527l-2.003 3.083 1.198.603 2.015-4.122 1.002.104v5.251l5.362-1.896c2.508 2.693 7.482 2.938 13.014.275l-4.783-1.637.579-1.549 10.956 4.386 5.575-3.105-.254 1.046 10.446 2.01-.242-3.186c2.253.44 4.26 1.136 6.275 1.161 3.915.049 8.258-1.422 11.646-.165 4.32 1.602 6.563.338 8.786-2.898 2.741 5.457 11.632 5.936 17.045.778v6.144c3.774-4.104 7.292-5.309 11.18-1.774 3.286-3.063 6.559-4.81 11.011-2.005 1.765 1.112 4.354 1.205 6.577 1.244 5.133.09 10.289-.436 15.406-.163 7.256.387 14.479 1.389 21.734 1.81 1.114.065 2.328-1.578 3.496-2.432 2.083 1.145 4.151 1.114 6.218 1.158 1.067.022 2.419-.21 3.15.334 4.987 3.714 10.096.538 15.129.451 3.309-.057 6.618-.459 9.92-.384 3.073.07 6.143.521 9.204.887 2.565.307 6.191-3.682 7.555 1.814.039.159 1.028.312 1.396.122 2.122-1.096 4.19-2.297 6.277-3.462 1.866 1.185 3.78 1.284 5.599 1.75 3.19.816 6.983-1.519 8.759-.833 4.356 1.684 7.157 1.044 10.084-1.967.015-.016.448.374.823.69l-2.103 2.765c5.122 1.634 10.191-3.489 14.932.969l1.119-2.21 7.978 1.77c2.95-3.833 14.394-1.554 17.481 3.461l8.542-6.267-.218 4.153 6.686-2.441c1.846 2.043 12.938 4.339 14.412 2.411 2.17-2.839 4.389-1.851 5.691-.33 2.505 2.926 4.684 1.437 6.042-.402l3.055-3.862 1.661 4.884c1.842-.254 3.983-1.14 4.57-.531 3.171 3.295 5.197 1.366 7.078-1.412 4.692 5.587 6.846-.036 9.926-2.264l.55 3.523h9.756l.219 1.744c1.812-.51 4.288-.465 4.92-1.523 1.945-3.252 2.555.839 3.66.378 1.627-.678 3.126-1.665 5.868-3.175l-2.511 5.463 9.38-4.746 1.326 3.18 5.249-2.091-.694 2.932 7.176-.528-2.167-1.787 7.616-1.237-.816 3.434c1.678-.97 2.766-2.097 3.848-2.092 1.227.006 2.502 1.613 3.663 1.506 5.124-.472 10.289-.982 15.292-2.124 3.653-.834 6.142-.494 7.035 2.759 1.427-.994 2.64-2.331 4.107-2.731 1.705-.465 3.634-.108 5.578-.108 1.711 6.797 6.513 1.784 10.233 2.556l-1.967-2.607c6.417.121 12.303 3.573 18.546 1.109.726 3.317 3.443 3.117 5.115 1.255 2.014-2.242 3.138-2.944 5.171-.364.323.41 1.519.243 2.293.166l11.001-1.205.614 2.727c2.221-.809 4.688-2.546 5.687-1.925 4.268 2.656 7.167.956 9.884-2.152 3.358 2.863 10.131 2.98 11.584 1.334l7.597.979-.135-2.019 10.488 2.473 4.06-2.029 8.06 2.733c.877-3.556 1.847-3.973 5.439-2.884 2.446.741 5.124 2.158 7.4 1.721 4.6-.883 8.908-1.734 13.739-.839 4.597.851 9.475.183 14.097.183.228-.434.556-1.944 1.155-2.061 4.002-.78 8.063-1.262 11.987-1.825l-.093.542h8.826c-2.249-1.872-6.992-1.778-4.547-6.104l4.243 2.071c2.506-5.897 5.267-7.235 8.01-4.263z"/></svg>