<svg viewBox="0 0 230 59" xmlns="http://www.w3.org/2000/svg">
  <path d="M229.73924,29.1457482 C229.68269,24.0686321 228.582011,20.9128674 227.228086,20.9128674 C227.119903,20.875482 227.007623,20.8499506 226.887966,20.8499506 L201.456797,20.841744 C195.451829,20.8399204 187.658887,20.3639407 181.739973,19.3189739 C179.548451,18.9314426 177.513465,18.4919365 176.171834,18.0268989 C172.037118,16.593489 169.888213,14.1835001 166.664035,11.2501161 C164.016014,8.84103904 156.098995,0.35 137.907063,0.35 L8.49085349,0.35 C5.96248883,0.35 3.76113146,2.25665406 3.14317783,4.98305083 C1.94169238,10.2844792 0.255023184,18.7216118 0.255023184,29.35 C0.255023184,39.9783882 1.94169238,48.4155208 3.14317783,53.7169492 C3.76113146,56.4442578 5.96248883,58.35 8.49085349,58.35 L137.74233,58.35 C155.966225,58.35 163.897177,49.858961 166.550116,47.4498839 C169.77921,44.5174117 171.931393,42.106511 176.073486,40.6731011 C177.418396,40.2080635 179.456659,39.7685574 181.652279,39.3819379 C187.581028,38.3360593 195.384624,37.8600796 201.400247,37.858256 L226.883048,37.8500494 C227.002705,37.8500494 227.115805,37.824518 227.223988,37.7871326 C228.579552,37.7871326 229.68187,34.6322798 229.73924,29.5560755 L229.744977,29.5551636 C229.744977,29.4858639 229.742518,29.4192997 229.742518,29.35 C229.742518,29.2807003 229.744977,29.2141361 229.744977,29.1448364 L229.73924,29.1457482 Z" fill="#E2451F"></path>
</svg>