<svg xmlns="http://www.w3.org/2000/svg" viewBox="0 0 220.04 203.9"><path d="M14,53.1H39.76c4.29,0,8,3.3,8.92,7.93L72.76,181.8c.93,4.63,4.63,7.93,8.92,7.93H196.15" transform="translate(-6.47 -45.6)" fill="none" stroke="#e2451f" style="stroke-linecap:round;stroke-miterlimit:10;stroke-width:15px"/><path d="M56.78,75.87H217.3c6,0,10.34,6.46,9,13.18L214,148.56c-1.3,6.34-6.17,10.81-11.78,10.81H71.16" transform="translate(-6.47 -45.6)" fill="#e2451f"/><path d="M120.24,229.82a15.18,15.18,0,1,1-15.18-15.18A15.18,15.18,0,0,1,120.24,229.82Z" transform="translate(-6.47 -45.6)" fill="#e2451f" stroke="#e2451f" style="stroke-miterlimit:10;stroke-width:9px"/><path d="M188.56,229.82a15.18,15.18,0,1,1-15.18-15.18A15.18,15.18,0,0,1,188.56,229.82Z" transform="translate(-6.47 -45.6)" fill="#e2451f" stroke="#e2451f" style="stroke-miterlimit:10;stroke-width:9px"/></svg>