<svg id="main-logo" data-name="Layer 1" xmlns="http://www.w3.org/2000/svg" viewBox="0 0 262.19 124.79" fill="#e2451f"><title>Mollydooker</title><path d="M207.16,82.33a5.38,5.38,0,0,1,6,4.16c.94,4-2.23,9.68.65,12.06.82-.87.45-1.79,1.7-2,2.8-.51,2.42,2.58,1.86,3.86a7.9,7.9,0,0,1-3.23,3.42,9.32,9.32,0,0,1-5.57.48c-2.24-.78-2.75-3.68-2.65-6.18.17-4.19,3.73-8.72-.34-11a19.88,19.88,0,0,0-4,.32c-1.12,5-1.17,11-1.8,16.4.91.72,2.13-.17,2.47.92.66,2.1-8.61,2.3-9.89,2.66,1.87-15.83,3.43-32,5-48.12-.65-.83-1.51,1.32-2.33,0,1.35-2.47,5.6-6.69,9.27-4.2.7,8.77-2.33,16-2.4,24a41.26,41.26,0,0,0,16.36-10.26c2.59-2.62,7-9,4.6-14.86a7.81,7.81,0,0,0-3.26-3.23c-2.31-.89-5.69-.08-5.87,2.18s2.9,4.18,3.4.92c5.53,1.89,2.61,9.77-3.53,8.36a7.42,7.42,0,0,1-4.34-3.86c-2.91-6.5,3.76-11.63,10-11.47C224,47,228,51.07,229,55.37a24.17,24.17,0,0,0,2.91-9.44c.43-6.22-1.89-9.88-5.3-13.6-2.64-2.89-5.76-5.54-9-6.78-4-1.52-8.59.07-9,4.2-.11,1.32.44,3,1.25,3.4a2.68,2.68,0,0,0,3.56-1.25c.24-.75-.26-1.64-.32-2.62,4.3-2.14,7.72,1.57,7.13,6-.57,4.23-5.25,7.49-11.12,5.91-2.94-.8-6.6-5.28-6.52-9.57.09-5.77,5.37-10.13,10.79-11.17,4-.78,7.72.83,11.45,1.82-4.37-4.09-9.47-7.86-16-9.85s-13.8-4.27-21.66-4.27c-11.31,0-22.54,1.54-30.29,6.28-7.41,4.53-14.49,10.1-15.25,21.08a20.9,20.9,0,0,0,0,3.71c.79,7.55,8.43,12.3,17.35,12.32A33.47,33.47,0,0,0,172,49c3.63-1.53,6.93-3.35,9.26-6.06,2.73-3.18,5.36-9.2,2.59-14.24-2.21-4-8.4-6.67-13.31-3.67-1.45.89-3,2.49-2.93,4.49a3.56,3.56,0,0,0,2.79,3.24c1.73.14,1.61-1.18,3.09-1.55,2.89,5.38-1.72,10.9-7.23,10.85-5.16-.06-8.49-4.5-8.38-9.88.15-7.93,8.31-14.49,17.44-13.35a16.63,16.63,0,0,1,10.22,5.54,18,18,0,0,1,2.52,17c-3,7.6-10,13.44-18.36,15.83a30.67,30.67,0,0,1-17.47-.72c-5.15-1.8-10.8-5.64-13.8-9.86-2.47-3.48-3.81-7-4.06-13-1.82.16-3.19,1.29-4.79,1.87-6.89,2.53-15.68,1.47-20.73-3a18,18,0,0,1-5.28-10c-1-8.12,5.15-14.41,10.16-16.27,3.38-1.25,9.09-.55,11.6,1,2.2,1.41,5.22,4.88,5.74,7.72,1.75,9.56-12.11,11.92-13.59,4.37-.51-2.58.32-4.45,2.61-5.27.56.76.37,1.5,1.24,1.7,1.46.33,2.7-1.32,2.78-2.17.22-2.47-3.63-4.55-6.51-4.31-5.21.43-9.11,6.24-8,12.85.59,3.58,5.75,7,9.91,7.09a15.85,15.85,0,0,0,4.33-.63c5.81-1.35,10-5.28,14.36-9.17,2-1.8,4.14-3.67,6.17-5.58,4.72-4.45,9.44-7.31,16.52-10A63.55,63.55,0,0,1,184.39,0,77.53,77.53,0,0,1,202,2a46.84,46.84,0,0,1,10.53,3.68c8.17,4.23,15.55,10.12,20.15,18,1.88,3.25,4,7.08,4.52,10.66,1.35,9.9-2.18,20.07-5.81,25.84-2.41,3.84-5.88,7.32-9.24,10.7a76.52,76.52,0,0,1-15.12,11.49" transform="translate(0 0.05)" style="fill-rule:evenodd"/><path d="M67.5,25.4c-1.89.56-3,2.53-4.32,4.19C57.63,36.8,56.25,50.31,58,62.7c.56,3.89,1.38,7.81,3.44,10.35a4.29,4.29,0,0,0,3.08-1.72c-3.26-6.39-3.21-18.29,1.8-22.89,1.71-1.57,5.07-2.78,7.57-1.57,3.62,1.76,6,9.53,5.61,15.76-.29,4.15-1.87,9.77-4.29,11.61a7.87,7.87,0,0,1-6.8.64c-1.36-.55-1.63-1.55-3.11-2.31-1.07,3.2-2.59,6-7.25,5.59-4.51-3.26-6.37-10.91-7-18.22a47.13,47.13,0,0,1,4.26-23.83c-3.62,3.59-5.69,9.52-7.22,16.1-.45,1.92-1.49,4.37-1.37,6.35s1.92,4.52,2.8,6.64c1.36,3.26,2.55,6.88,2,11-.34,2.72-1.75,6.08-3.69,6.51-4,.89-6-3.9-6.36-7.1a29,29,0,0,1,.14-5.1,36.25,36.25,0,0,0,.45-4.64c-.2-2-2.19-4.15-3.11-5.72-1.2-2-2.16-4-3.73-5.09,3.05,9,3.75,21.22.09,29.38-.56,1.23-2.16,2.76-2.31,4-.18,1.48,1,4.59,1.72,6.34C36.48,99,38.79,103.43,43,105c2.92,1.08,7.55,1.35,10-.64,2.08-1.67,4.81-8.77.74-11.3-2-1.27-5.73-1.28-6.64.79-1.22,2.76,2.74,2.71,1.85.31,4.9.91,3.83,7.54-.44,8.51-7.49,1.13-9.93-7.8-5.91-12,6-6.33,18.15-1.37,17.81,8.15-.21,6-3.78,11.26-9.09,12.86,15.13,8.93,34.52-.33,35.84-15.26.31-3.6-1.41-9.15-3.59-11.59-2-2.23-6.94-4.75-11.14-3.37-1.82.6-4.87,3.21-5.25,5.27-.48,2.61,1.42,6,3.57,5.72a1.65,1.65,0,0,0-.16-3.25c.76-3.11,5.89-4.26,8.19-1.57C81.2,90.43,80.09,96,78,98.21c-3.27,3.51-10.24,2.46-13-.43C61.4,94,62,85.1,65.71,81.39c2.8-2.79,9.23-4.91,14.84-3a16,16,0,0,1,5.58,3.69c3.16,3.2,5,7.62,4.53,13.6-.79,10.74-8.22,19.52-16.64,23.4a34.3,34.3,0,0,1-11.13,3.12,38.49,38.49,0,0,1-24.82-6.87c-7-5.15-10.86-12.41-14.76-21.15-5.79.3-11.73.09-15.93-2.42C2.63,88.91-.52,84.62.07,76.62c.5-7,4.51-11.33,12.33-11a12.87,12.87,0,0,1,4,.92c6.39,2.57,11,9.37,14.14,14.79,2.91-5.19,3.49-13.65,2.26-21-1.06-6.41-3.8-12.72-5.46-18.08,1.83-1.26,3.45-2.73,5.71-3.57A185.45,185.45,0,0,1,44.23,53.8c3.72-11,8.28-22.63,17.54-29.28,2.82-2,7.2-4.49,10.82-4.67a6,6,0,0,1,5.88,4.48c.78,3.64-2.41,8.57-7.4,7.75-2.14-1.21-4.2-3.15-3.57-6.64m1,39.9c.28,1.59,1,5.78,2.65,5.87s2.24-2.49,2.61-4.19a22.73,22.73,0,0,0-2.83-16.54h-.31a1.07,1.07,0,0,0-.46.32c-.61.26-.62,1.12-1.23,1.39-1.41,3.76-1.23,8.6-.43,13.15M46.89,79.94c1.51-4.08-.24-9.63-3-11.44-.78,4.39-.3,9.79,3,11.44M5.16,74.33C3,76.15,4,81.73,5.16,84.22a12.68,12.68,0,0,0,5.12,4.94c2.23.94,10.21,1.73,11.13-.81.47-1.29-1.35-4.93-2.34-6.64-2.28-3.94-5.49-8.46-10.54-8.17-1.45.09-2.58.11-3.4.79" transform="translate(0 0.05)" style="fill-rule:evenodd"/><path d="M99.05,25h.3c-1.25,12.74-3.56,27.4-2.51,41.92,2.14-.6,2.67-3.62,3.39-6a32.53,32.53,0,0,0,1.53-8,12.19,12.19,0,0,1,3.55-.94c2.67,2.64,4.17,6.46,6.37,9.57,1-2.12,3.06-6.52,3.06-10.06,0-1.94-.73-4.33-2.8-4.48a4.46,4.46,0,0,0-3.24,1.4c-.64.57-1.25,2.08-2.63.94.08-1.22,1.5-2.41,2.62-3.56,1.49-1.53,3.72-3.76,6.8-3.43,1.85.2,4.55,2.83,4.8,4.78a24,24,0,0,1-6.9,19.51c2.88,7.78-.46,16.44-5.36,19.19-2.24,1.26-7.1,1.72-8.19-.9s.68-6.26,1.52-8a29.42,29.42,0,0,1,2.92-4.34c.81-1,2.92-2.87,3.09-4,.19-1.39-1.11-3.49-1.72-4.63a20.3,20.3,0,0,0-2.48-3.86C100.7,63.92,99.71,72.89,92.84,72c-1.46-1.22-1.35-4-1.72-6.34C89.23,67.57,88.27,73.35,84,73c-3.65-.35-3.49-8.19-3.29-13.13.14-3.43-.15-7.12,0-10.21A171.3,171.3,0,0,1,83,29c2-.82,4.2-2.19,6.18-2.49-1.66,9.31-2.3,20.13-2.85,30.94-.17,3.34-.32,7,1.27,9.58a12.68,12.68,0,0,0,3.54-5.42A14.47,14.47,0,0,0,91,59,209.18,209.18,0,0,1,93.2,28.39a36.72,36.72,0,0,1,5.88-3.27m9.56,46.52c-.2,0-.21-.2-.46-.15-2.44,2.88-7,6.4-5.69,11.3,5.07-.63,6.36-5.77,6.15-11.15" transform="translate(0 0.05)" style="fill-rule:evenodd"/><path d="M110.24,98.58c1.14.62.51,2.65,2.32,2.31,1.07-.2,1.31-1.78,1.08-2.94-.43-2.14-4.22-3.55-7.59-3.22-4.24.41-7.07,5.32-6.77,10.38.27,4.79,4,8.67,7.6,10.8a29.79,29.79,0,0,0,6.35,2.61c2.29.62,6.37,1.27,8.51.59,2.37-.75,6-6.83,6.78-9.14,1.25-3.71,1.94-7.87,2.9-11.92,2.89-12.19,3.91-25.22,6.23-38.21-3.67-.79-9.46,1.8-10.81,5-.58,1.37-.68,4.53,1.25,4.33,1.26-.14.63-.8,1.23-1.71,5.5,2.52,1,10.71-5.08,8.06-7-3.09-2.32-13.86,2.43-16.71,3.28-2,7.94-3,13.6-2.67,4.45.26,6.76.82,9.75,2.6,5,3,7.85,6.86,9.94,13.12,2.33,7,1.52,17-.09,24.74-.4,2-.46,3.92-.91,5.57-.72,2.66-2.67,5.48-4.46,8.21s-3.27,5.25-5.54,7.13c-2.09,1.72-5.34,3-8.19,4-3,1.14-6.27,2.65-9.27,3a65.17,65.17,0,0,1-11,0c-4.89-.36-9.41-.73-13-2.43-2.46-1.18-7.46-5-9.3-7.71-2.75-4.09-3.56-12.3-.36-17.16a18.08,18.08,0,0,1,9.72-7c6.38-1.49,11.92.67,14.56,5.06,2.24,3.73,1.76,10.22-1.36,13-4,3.52-12,2.12-13.15-3.36-.58-2.74.4-5.3,2.61-6.35m29.9,18.16a25.29,25.29,0,0,0,5.71-4.81c1.13-1.37,1.67-3.79,2.61-6.19a80.69,80.69,0,0,0,4.87-24.14,46.2,46.2,0,0,0,.3-6.65c-.56-5.23-3.31-9.69-6.53-11.74h-.29c-4,17.94-6.48,36.53-10.67,54.32a7.59,7.59,0,0,0,4-.79" transform="translate(0 0.05)" style="fill-rule:evenodd"/><path d="M254.44,70.79c-5.84,4-6.19,14.3-6.42,23.37.62.4,1.77,0,2.47,0a5.19,5.19,0,0,1-.15,2c-2.62,1.1-6.92,1.34-9.58,1.89.16-3.84.5-7.57.9-11.3.51-4.89,2.26-9.63.73-13.92-1.43,0-1.57,1.32-2.78,1.56-.26-.42-.66-.69-.93-1.08.54-1.3,2.11-2.56,3.85-3.72,1.52-1,3.48-2.61,5.26-2.19,1.41.34,1.79,2,2,3.87,2.32-2.12,3.94-5.93,7.86-6.37s6,5.69,3.43,8.5c-1.82,2-7,1.88-6.66-2.61" transform="translate(0 0.05)" style="fill-rule:evenodd"/><path d="M224.65,87.58c.53,2.82,1.32,9.14,4.2,9.42,1.33.13,2-.73,2.47-1.71.36-.69,1.12-2.3.92-3.25s-2-1.56-2.18-2.93c-.44-3,1.54-4.57,4.63-4.5,1.63.6,2.45,3.36,2.18,6-.5,5.09-4.61,10.81-10,10.39-2.3-.17-4.72-2.23-5.73-3.54A17.76,17.76,0,0,1,218,85.72c.73-7.61,6.25-15.5,12.63-16.27,2.93-.36,4.63,1.24,4.66,4.47,0,3.76-3.32,8.93-5.69,10.84a40.73,40.73,0,0,1-4.94,2.8m0-3.71c2.79-1.07,5.13-4.77,5.86-8.06.2-.9.5-2.68-.63-3.25-3.46,2.06-5.38,5.65-5.23,11.31" transform="translate(0 0.05)" style="fill-rule:evenodd"/><path d="M175.88,69.94c3-.35,8.32-.47,10.83.27,2.25.68,5.22,2.36,6.35,4.47a10.69,10.69,0,0,1,.18,8.2c-3.78,8.28-25.86,9-29.08-.54a8.14,8.14,0,0,1,.45-5.88c1.37-3,6.51-6,11.27-6.52m8.85,11.26c1.85-.41,4.82-.9,4.63-2.8-.17-1.69-4.15-2.48-6.66-2.61-6-.32-11,1.13-13.91,3.6,2,4.41,11.65,2.74,15.94,1.81" transform="translate(0 0.05)" style="fill-rule:evenodd"/><path d="M175.63,91.43c7-.54,13.84,1.92,15.64,6.45,1.2,3,0,6.87-1.67,8.82-3.41,3.91-14.71,7.35-21.18,4.24-3.29-1.59-7.2-5.09-6.83-10a9,9,0,0,1,2.15-4.5c2.27-2.57,7-4.61,11.89-5m-6.78,7.44c-.38.17-2.66,1.71-2.62,2.8.07,2.3,5,3.06,7.59,3.22,4.46.29,12.85-.71,13-3.59.17-3.82-7.94-4-11.15-3.68-2.43.28-5.13.53-6.8,1.25" transform="translate(0 0.05)" style="fill-rule:evenodd"/></svg>