<svg xmlns="http://www.w3.org/2000/svg" viewBox="0 0 49 58">
<path fill="currentColor" d="M19.9,56.4c0.3,0.6,0.6,1.1,1,1.6h-2.2C19.1,57.5,19.5,56.9,19.9,56.4l-0.1-0.1C19.8,56.3,19.8,56.3,19.9,56.4
	c0-0.1,0-0.1,0-0.2L19.9,56.4z M44.8,17.5C44.6,21.8,45,25.7,49,28V6.4C44.8,9.1,44.9,13.9,44.8,17.5z M44.6,37.4
	c-0.1,0.3,0,2.3-0.3,2.6c-0.3,0.3-0.5,0-0.7-0.4c-0.2-0.5-1.3-1.5-1.3-1.5s-1-0.2-1.1,0.2c-0.1,0.5,1.9,3.1,3.2,4.5
	c0,0,0.2,0.2,0.8,0.1c0.6-0.1,3.1-3.6,3.2-4.2c0.1-0.6-0.5-1-0.9-0.7c-0.4,0.3-0.9,2-1.3,2.2c-0.4,0.2-0.4-0.2-0.3-0.5
	c0.1-0.3,0.1-2.4-0.4-2.4C45.2,37.1,44.7,37.1,44.6,37.4z M43.9,50.3c-0.6,0.1-3.1,3.6-3.2,4.2c-0.1,0.6,0.5,1,0.9,0.7
	c0.4-0.3,0.9-2,1.3-2.2c0.4-0.2,0.4,0.2,0.3,0.5c-0.1,0.3-0.1,2.4,0.4,2.4c0.4,0.1,1,0.1,1-0.2c0.1-0.3,0-2.3,0.3-2.6
	c0.3-0.3,0.5,0,0.7,0.4c0.2,0.5,1.3,1.5,1.3,1.5s1,0.2,1.1-0.2c0.1-0.5-1.9-3.1-3.2-4.5C44.8,50.3,44.5,50.1,43.9,50.3z M49,58H28.1
	c-6.9-1.9-7.5-6.6-7.3-11.8c0.2-5.1,0-12.4,11.8-13.2c6.1-0.4,10.5-2.4,12.3-6l0,0c0,0,0,0,0,0c0,0,0-0.1,0-0.1l0,0.2
	c0.9,1.9,2.2,3.3,4.1,4.2v5.5c-0.9-0.5-2.2-0.9-3.9-0.9c-4.4-0.1-5.3,1.5-5.5,3.1c-0.2,1.6,4,5.2,5.1,5.1c0.7,0,2.8-1.4,4.3-2.8V46
	c-0.3,0.3-0.4,0.5-0.4,0.7c0,0.2,0.2,0.4,0.4,0.7v5.1c-1.2-1.7-3.7-3.5-4.4-3.5c-1.1,0-5.1,2.9-5.6,4.7c-0.5,1.7,1.4,3.5,5.3,3.6
	c2.7,0,4.1-0.5,4.8-1.4V58z M32.3,50.9c2.7,0.2,8.5-3.5,8.4-4.4c-0.1-0.9-4.8-4.4-7.7-4.9c-2.9-0.5-5.8,1.2-5.9,4.6
	C27,50.1,29.6,50.8,32.3,50.9z M31.6,42.9c-1-0.1-1.6,0.5-1.2,0.8c0.4,0.4,3.3,0.8,3.6,1.2c0.3,0.4-0.3,0.4-0.9,0.3
	c-0.6-0.1-3.9-0.1-4,0.4c-0.1,0.4-0.1,0.9,0.3,1c0.5,0.1,3.7,0,4.3,0.3c0.6,0.3,0.1,0.5-0.7,0.6c-0.8,0.1-2.5,1.2-2.5,1.2
	s-0.4,0.9,0.3,1c0.8,0.1,5.1-1.8,7.5-3c0,0,0.3-0.2,0.1-0.8C38.4,45.3,32.6,43,31.6,42.9z M20.3,14.1c0.6-0.1,3.1-3.6,3.2-4.2
	c0.1-0.6-0.5-1-0.9-0.7c-0.4,0.3-0.9,2-1.3,2.2c-0.4,0.2-0.4-0.2-0.3-0.5c0.1-0.3,0.1-2.4-0.4-2.4c-0.4-0.1-1-0.1-1,0.2
	c-0.1,0.3,0,2.3-0.3,2.6c-0.3,0.3-0.5,0-0.7-0.4c-0.2-0.5-1.3-1.5-1.3-1.5s-1-0.2-1.1,0.2c-0.1,0.5,1.9,3.1,3.2,4.5
	C19.5,14.1,19.7,14.3,20.3,14.1z M6.6,14.2c-1-0.1-1.6,0.5-1.2,0.8c0.4,0.4,3.3,0.8,3.6,1.2c0.3,0.4-0.3,0.4-0.9,0.3
	c-0.6-0.1-3.9-0.1-4,0.4c-0.1,0.4-0.1,0.9,0.3,1c0.5,0.1,3.7,0,4.3,0.3c0.6,0.3,0.1,0.5-0.7,0.6C7.3,18.9,5.5,20,5.5,20
	s-0.4,0.9,0.3,1c0.8,0.1,5.1-1.8,7.5-3c0,0,0.3-0.2,0.1-0.8C13.3,16.6,7.5,14.3,6.6,14.2z M7.8,30c-3.5-0.3-6-1-7.8-2V6.4
	c1.7-1.1,4.1-1.9,7.6-2.1c5.1-0.3,9-1.8,11.1-4.3h2.2c1.9,2.5,5,3.9,10.1,4.3c11.8,0.8,11.6,8.1,11.8,13.2
	c0.2,6.3-0.7,11.7-12.1,12.6c-8.8,0.6-11.1,6.2-11.4,7l0,0.1c0,0,0,0,0-0.1c0,0,0,0.1,0,0.1l0-0.1C18.9,36.2,16.6,30.7,7.8,30z
	 M24.6,25.3c0.2-1.6-4-5.2-5.1-5.1c-1.1,0-5.1,2.9-5.6,4.7c-0.5,1.7,1.4,3.5,5.3,3.6C23.6,28.5,24.4,27,24.6,25.3z M23.5,17.9
	c0.1,0.9,4.8,4.4,7.7,4.9c2.9,0.5,5.8-1.2,5.9-4.6c0.1-3.9-2.4-4.6-5.1-4.7C29.3,13.3,23.5,17,23.5,17.9z M14.6,10.3
	c-0.2,1.6,4,5.2,5.1,5.1c1.1,0,5.1-2.9,5.6-4.7C25.8,9,23.9,7.3,20,7.2C15.6,7.2,14.8,8.7,14.6,10.3z M7.2,22.2
	c2.7,0.2,8.5-3.5,8.4-4.4c-0.1-0.9-4.8-4.4-7.7-4.9c-2.9-0.5-5.8,1.2-5.9,4.6C2,21.3,4.5,22,7.2,22.2z M32.6,21.5
	c1,0.1,1.6-0.5,1.2-0.8c-0.4-0.4-3.3-0.8-3.6-1.2c-0.3-0.4,0.3-0.4,0.9-0.3c0.6,0.1,3.9,0.1,4-0.4c0.1-0.4,0.1-0.9-0.3-1
	c-0.5-0.1-3.7,0-4.3-0.3c-0.6-0.3-0.1-0.5,0.7-0.6c0.8-0.1,2.5-1.2,2.5-1.2s0.4-0.9-0.3-1c-0.8-0.1-5.1,1.8-7.5,3
	c0,0-0.3,0.2-0.1,0.8C25.9,19.1,31.6,21.4,32.6,21.5z M18.9,21.5c-0.6,0.1-3.1,3.6-3.2,4.2c-0.1,0.6,0.5,1,0.9,0.7
	c0.4-0.3,0.9-2,1.3-2.2c0.4-0.2,0.4,0.2,0.3,0.5c-0.1,0.3-0.1,2.4,0.4,2.4c0.4,0.1,1,0.1,1-0.2c0.1-0.3,0-2.3,0.3-2.6
	c0.3-0.3,0.5,0,0.7,0.4c0.2,0.5,1.3,1.5,1.3,1.5s1,0.2,1.1-0.2c0.1-0.5-1.9-3.1-3.2-4.5C19.7,21.6,19.5,21.4,18.9,21.5z M18.8,46.2
	C18.6,41.1,18.8,33.8,7,33c-3-0.2-5.2-0.8-7-1.7v5.5c1.2,0.7,1.7,1.7,1.4,2.7c-0.2,0.6-0.7,1.2-1.4,1.9V46c1.4-1.4,5.8-3.9,8-3.8
	c2.7,0.2,5.2,0.9,5.1,4.7c-0.1,3.4-3,5.1-5.9,4.6c-2.4-0.4-6.1-2.9-7.3-4.2v5.1c0.4,0.6,0.7,1.2,0.7,1.6c-0.1,0.6-0.2,1.2-0.7,1.8
	V58h11.5C18.4,56.1,19,51.4,18.8,46.2z M8.7,50.2c1,0.1,1.6-0.5,1.2-0.8c-0.4-0.4-3.3-0.8-3.6-1.2c-0.3-0.4,0.3-0.4,0.9-0.3
	c0.6,0.1,3.9,0.1,4-0.4c0.1-0.4,0.1-0.9-0.3-1c-0.5-0.1-3.7,0-4.3-0.3C6,46,6.5,45.8,7.2,45.6c0.8-0.1,2.5-1.2,2.5-1.2
	s0.4-0.9-0.3-1c-0.8-0.1-5.1,1.8-7.5,3c0,0-0.3,0.2-0.1,0.8C1.9,47.8,7.7,50.1,8.7,50.2z M44.3,7.8l0,0.1
	C44.3,7.9,44.3,7.9,44.3,7.8c0,0.1,0,0.1,0,0.1L44.3,7.8c0.2-0.6,1.4-3.2,4.7-5.1V0H28.1c1.3,0.4,2.9,0.6,4.8,0.8
	C41.7,1.4,44,7,44.3,7.8z M11.5,0H0v2.7C1.6,1.7,3.8,1,6.7,0.8C8.6,0.6,10.2,0.4,11.5,0z"/>
</svg>
